<svg width="24" height="12" viewBox="0 0 24 12" fill="none" xmlns="http://www.w3.org/2000/svg">
<path d="M0 11.6667V10.1355C0 9.43874 0.356481 8.87161 1.06944 8.43411C1.78241 7.99661 2.72222 7.77786 3.88889 7.77786C4.09954 7.77786 4.30208 7.78191 4.49653 7.79001C4.69097 7.79811 4.87732 7.81837 5.05556 7.85078C4.8287 8.19105 4.65857 8.54753 4.54514 8.92022C4.43171 9.29291 4.375 9.68179 4.375 10.0869V11.6667H0ZM5.83333 11.6667V10.0869C5.83333 9.56837 5.97512 9.09441 6.25868 8.66501C6.54225 8.23561 6.94329 7.85888 7.46181 7.5348C7.98032 7.21073 8.60012 6.96767 9.32118 6.80564C10.0422 6.6436 10.8241 6.56258 11.6667 6.56258C12.5255 6.56258 13.3154 6.6436 14.0365 6.80564C14.7575 6.96767 15.3773 7.21073 15.8958 7.5348C16.4144 7.85888 16.8113 8.23561 17.0868 8.66501C17.3623 9.09441 17.5 9.56837 17.5 10.0869V11.6667H5.83333ZM18.9583 11.6667V10.0869C18.9583 9.66559 18.9057 9.2686 18.8003 8.89591C18.695 8.52323 18.537 8.17485 18.3264 7.85078C18.5046 7.81837 18.6869 7.79811 18.8733 7.79001C19.0596 7.78191 19.25 7.77786 19.4444 7.77786C20.6111 7.77786 21.5509 7.99256 22.2639 8.42196C22.9769 8.85135 23.3333 9.42253 23.3333 10.1355V11.6667H18.9583ZM7.89931 9.7223H15.4583C15.2963 9.39823 14.8466 9.11466 14.1094 8.87161C13.3721 8.62855 12.5579 8.50703 11.6667 8.50703C10.7755 8.50703 9.96123 8.62855 9.22396 8.87161C8.48669 9.11466 8.04514 9.39823 7.89931 9.7223ZM3.88889 6.80564C3.35417 6.80564 2.89641 6.61524 2.51562 6.23446C2.13484 5.85367 1.94444 5.39591 1.94444 4.86119C1.94444 4.31027 2.13484 3.84846 2.51562 3.47578C2.89641 3.10309 3.35417 2.91675 3.88889 2.91675C4.43982 2.91675 4.90162 3.10309 5.27431 3.47578C5.64699 3.84846 5.83333 4.31027 5.83333 4.86119C5.83333 5.39591 5.64699 5.85367 5.27431 6.23446C4.90162 6.61524 4.43982 6.80564 3.88889 6.80564ZM19.4444 6.80564C18.9097 6.80564 18.452 6.61524 18.0712 6.23446C17.6904 5.85367 17.5 5.39591 17.5 4.86119C17.5 4.31027 17.6904 3.84846 18.0712 3.47578C18.452 3.10309 18.9097 2.91675 19.4444 2.91675C19.9954 2.91675 20.4572 3.10309 20.8299 3.47578C21.2025 3.84846 21.3889 4.31027 21.3889 4.86119C21.3889 5.39591 21.2025 5.85367 20.8299 6.23446C20.4572 6.61524 19.9954 6.80564 19.4444 6.80564ZM11.6667 5.83341C10.8565 5.83341 10.1678 5.54985 9.60069 4.98272C9.03356 4.41559 8.75 3.72693 8.75 2.91675C8.75 2.09036 9.03356 1.39765 9.60069 0.838623C10.1678 0.279595 10.8565 8.10623e-05 11.6667 8.10623e-05C12.4931 8.10623e-05 13.1858 0.279595 13.7448 0.838623C14.3038 1.39765 14.5833 2.09036 14.5833 2.91675C14.5833 3.72693 14.3038 4.41559 13.7448 4.98272C13.1858 5.54985 12.4931 5.83341 11.6667 5.83341ZM11.6667 3.88897C11.9421 3.88897 12.173 3.7958 12.3594 3.60946C12.5457 3.42311 12.6389 3.19221 12.6389 2.91675C12.6389 2.64128 12.5457 2.41038 12.3594 2.22404C12.173 2.0377 11.9421 1.94453 11.6667 1.94453C11.3912 1.94453 11.1603 2.0377 10.974 2.22404C10.7876 2.41038 10.6944 2.64128 10.6944 2.91675C10.6944 3.19221 10.7876 3.42311 10.974 3.60946C11.1603 3.7958 11.3912 3.88897 11.6667 3.88897Z" fill="#212121" fill-opacity="0.4"/>
</svg>
